<?xml version="1.0" encoding="utf-8"?>
<!-- Generator: Adobe Illustrator 15.0.2, SVG Export Plug-In  -->
<!DOCTYPE svg PUBLIC "-//W3C//DTD SVG 1.1//EN" "http://www.w3.org/Graphics/SVG/1.1/DTD/svg11.dtd" [
	<!ENTITY ns_flows "http://ns.adobe.com/Flows/1.0/">
]>
<svg version="1.1"
	 xmlns="http://www.w3.org/2000/svg" xmlns:xlink="http://www.w3.org/1999/xlink" xmlns:a="http://ns.adobe.com/AdobeSVGViewerExtensions/3.0/"
	 x="0px" y="0px" width="1024px" height="768px" viewBox="-173.07 -57.736 1024 768"
	 overflow="visible" enable-background="new -173.07 -57.736 1024 768" xml:space="preserve">
<defs>
</defs>
<path fill="#231F20" d="M378.475,577.802c0,41.271-33.461,74.726-74.682,74.726c-41.232,0-74.699-33.455-74.699-74.726
	c0-41.232,33.467-74.69,74.699-74.69C345.014,503.111,378.475,536.569,378.475,577.802z"/>
<path fill="#231F20" d="M394.861,247.148c0,41.258-33.455,74.723-74.701,74.723s-74.701-33.465-74.701-74.723
	c0-41.22,33.455-74.671,74.701-74.671S394.861,205.929,394.861,247.148z"/>
<path fill="#231F20" d="M322.055,79.458c0,41.261-33.449,74.671-74.699,74.671c-41.271,0-74.707-33.41-74.707-74.671
	c0-41.255,33.436-74.699,74.707-74.699C288.605,4.759,322.055,38.203,322.055,79.458z"/>
<path fill="#231F20" d="M501.996,79.458c0,41.261-33.408,74.671-74.648,74.671c-41.289,0-74.744-33.41-74.744-74.671
	c0-41.255,33.455-74.699,74.744-74.699C468.588,4.759,501.996,38.203,501.996,79.458z"/>
<path fill="#231F20" d="M677.859,79.458c0,41.261-33.408,74.671-74.654,74.671c-41.252,0-74.707-33.41-74.707-74.671
	c0-41.255,33.455-74.699,74.707-74.699C644.451,4.759,677.859,38.203,677.859,79.458z"/>
<path fill="#231F20" d="M149.375,74.664c0,41.28-33.43,74.707-74.682,74.707C33.449,149.371,0,115.944,0,74.664
	C0,33.432,33.449,0,74.693,0C115.945,0,149.375,33.432,149.375,74.664z"/>
<path fill="#231F20" d="M210.742,246.465c0,41.232-33.416,74.681-74.654,74.681c-41.277,0-74.707-33.448-74.707-74.681
	c0-41.238,33.43-74.693,74.707-74.693C177.326,171.771,210.742,205.227,210.742,246.465z"/>
<path fill="#231F20" d="M570.717,247.148c0,41.258-33.41,74.723-74.648,74.723c-41.258,0-74.705-33.465-74.705-74.723
	c0-41.22,33.447-74.671,74.705-74.671C537.307,172.478,570.717,205.929,570.717,247.148z"/>
<path fill="#231F20" d="M292.562,408.703c0,41.258-33.43,74.7-74.66,74.7c-41.285,0-74.701-33.442-74.701-74.7
	c0-41.234,33.416-74.7,74.701-74.7C259.133,334.003,292.562,367.469,292.562,408.703z"/>
<path fill="#231F20" d="M493.027,412.813c0,41.256-33.447,74.688-74.699,74.688s-74.701-33.432-74.701-74.688
	c0-41.247,33.449-74.705,74.701-74.705S493.027,371.566,493.027,412.813z"/>
</svg>
