<?xml version="1.0" encoding="utf-8"?>
<!-- Generator: Adobe Illustrator 15.0.2, SVG Export Plug-In  -->
<!DOCTYPE svg PUBLIC "-//W3C//DTD SVG 1.1//EN" "http://www.w3.org/Graphics/SVG/1.1/DTD/svg11.dtd" [
	<!ENTITY ns_flows "http://ns.adobe.com/Flows/1.0/">
]>
<svg version="1.1"
	 xmlns="http://www.w3.org/2000/svg" xmlns:xlink="http://www.w3.org/1999/xlink" xmlns:a="http://ns.adobe.com/AdobeSVGViewerExtensions/3.0/"
	 x="0px" y="0px" width="1024px" height="584px" viewBox="-12 -23.9 1024 584"
	 overflow="visible" enable-background="new -12 -23.9 1024 584" xml:space="preserve">
<defs>
</defs>
<path fill="#231F20" d="M160.6,104.9c15.9,0,39.1,2.6,58.3,2.6c14.6,0,25.8-1.3,39.1-1.3c9.9,0,13.2,2,13.2,4.6
	c0,3.3-3.3,5.3-11.3,6.6c-20.5,3.3-19.9,12.6-15.2,23.2c28.5,71.5,96.7,221.9,143.1,323.2c2,4.6,4.6,3.3,6,0
	c22.5-46.4,38.4-80.8,58.3-127.2c1.3-1.3,1.3-6.6,1.3-7.3c-12.6-28.5-53.6-125.8-68.2-157.6c-19.2-42.4-23.8-49.7-43.7-55
	c-12.6-2.7-14.6-5.3-14.6-7.9c0-2,4-4,11.9-4c19.9,0,26.5,2.6,50.3,2.6c25.2,0,33.1-2.6,50.3-2.6c6,0,11.3,1.3,11.3,4
	c0,3.3-5.3,5.3-11.9,6.6c-20.5,4-26.5,13.2-15.2,41.1C435.4,187,452,224.8,477.2,285c0.7,1.3,2.6,2,4.6-1.3
	c19.9-40.4,30.5-65.6,45-98.7c23.8-57,23.2-62.9-5.3-68.9c-12.6-2.7-13.2-4.6-13.2-7.3c0-2,4-3.3,11.9-3.3c17.2,0,25.8,2,43.1,2
	c27.2,0,33.8-2.6,50.3-2.6c7.3,0,10.6,0.7,10.6,3.3c0,2.6-3.3,4.6-12.6,6.6c-25.8,6-39.1,22.5-60.3,60.3
	c-19.2,37.1-57.6,113.9-64.2,127.2c-0.7,1.3-0.7,4,0.7,7.3c19.9,46.4,45.7,104,68.9,155.6c2.6,5.3,4,4.6,6,0.7
	C597,390.3,682.5,193,694.4,146.6c2.6-12.6,2.6-24.5-19.2-31.1c-10.6-2.7-14.6-4-14.6-6.6c0-2.6,2-4,11.2-4
	c17.2,0,25.2,2.6,46.4,2.6c17.9,0,35.8-2.6,48.3-2.6c9.3,0,11.3,1.3,11.3,3.3c0,2.6-3.3,4.6-15.9,7.3
	c-29.1,7.3-39.7,25.2-80.1,113.9c-41.1,88.1-107.3,247-127.8,294.1c-4,10.6-6,15.2-9.3,15.2c-4,0-6.6-4.6-9.9-15.2
	c-13.9-41.1-49-118.6-70.9-168.2c-1.3-2-3.3-2.7-4.6-0.7c-25.2,50.3-60.3,130.5-74.2,167.6c-4.6,10.6-7.3,16.6-10.6,16.6
	c-3.3,0-4.6-4.6-9.3-16.6c-8.6-21.2-29.8-71.5-38.4-91.4c-36.4-85.4-75.5-172.9-107.3-241.7c-27.2-58.9-33.1-70.2-58.9-73.5
	c-7.3-0.7-13.2-3.3-13.2-6C147.3,107.5,152,104.9,160.6,104.9z"/>
<path fill="#231F20" d="M765.7,223.6c-1.2-29.5-0.4-35.6-17.2-41.1c-4.3-1-6.2-3-6.2-4.6c0-2.5,2.3-3,6.6-3c6.3,0,17.6,2.5,29.3,2.5
	c9.8,0,24.2-2,29.3-2c4.3,0,5.9,1,5.9,3c0,1.5-2,3.6-5.1,4.1c-14.1,4.1-16,12.2-17.2,28.9c-0.8,12.2-1.2,98-1.2,107.7
	c0,5.1,0.8,9.6,3.1,10.2c11,1,69.6,0.5,108.3,0.5c36,0,40.7-1.5,42.6-1.5c2.7-0.5,3.1-1.5,3.5-9.1c0.8-16.8-0.8-74.2-1.6-92.9
	c-1.2-32-1.2-41.1-18.4-44.2c-3.1-0.5-5.5-2-5.5-4.1c0-1,1.6-2.5,5.1-2.5c8.6,0,21.9,2,33.6,2c12.1,0,21.1-2,28.2-2
	c4.3,0,6.3,0.5,6.3,2.5c0,1.5-1.2,3-5.5,4.6c-17.2,4.6-18,13.7-18,37.6c-0.4,20.3,0,91.4,0.8,126.5c0.8,34.5,0.8,55.9,2,108.7
	c0.8,25.4,2.7,32,19.6,36.6c4.3,1.5,5.9,2.5,5.9,4.6c0,2-2,3-5.9,3c-5.5,0-26.6-1.5-35.2-1.5c-7.4,0-19.9,1-27,1
	c-4.7,0-7.4-1-7.4-3.6c0-1.5,1.6-3,6.3-4.1c13.3-3.6,17.2-6.6,17.6-28.4c0.4-25.9,1.2-95,0.4-105.1c-0.4-7.1-0.4-12.2-2.7-12.2
	c-12.5-1-68.4-2-106.8-2c-18.4,0-42.2-0.5-46.9-0.5c-1.2,0-2.7,4.1-2.7,12.7c0,63,2.3,109.2,3.9,119.4c1.6,10.7,7.8,14.7,15.2,17.3
	c5.5,1.5,6.7,3.6,6.7,5.1c0,2-2.7,3-6.7,3c-7.4,0-20.3-2.5-32.1-2.5c-9.8,0-22.7,2-28.5,2c-3.9,0-6.3-1.5-6.3-3
	c0-2.5,2.7-4.1,6.6-5.1c13.3-3.5,16-8.6,16.8-24.4c0.8-15.7,1.6-52.3,1.6-132.1C766.9,308.9,766.5,242.9,765.7,223.6z"/>
<path fill="#231F20" d="M168.6,197.3c21.8,15.7,31.5,38.6,31.5,60.9c0,34-17.3,48.8-28.9,57.9c-8.6,7.6-22.9,13.7-31,16.8
	c-2,1-1,4.6,1,9.6c10.2,19.8,43.2,71.6,57.4,90.9c15.7,21.3,26.4,34,37.1,44.7c16.3,16.2,31,20.8,40.1,20.8c4.1,0,6.6,1.5,6.6,3
	c0,1-2,2.5-6.1,4.1c-4.1,1.5-12.2,2-19.3,2c-31,0-51.3-16.8-70.1-40.1c-25.9-33-68.6-103.1-75.7-111.7c-5.1-5.6-9.6-10.2-15.7-11.7
	c-5.1-1.5-12.2-2.5-25.4-2c-2.5,0-4.6,2-5.1,4.1c-1,5.1-1.5,70.1-1,90.4c0.5,23.4,2.5,41.7,4.1,46.2c2,6.1,5.6,11.2,23.9,14.2
	c5.6,1,7.6,2,7.6,4.1c0,2-4.1,3.6-10.2,3.6c-10.7,0-20.3-2.5-37.6-2.5c-18.8,0-33.5,2.5-43.2,2.5c-5.1,0-8.6-1-8.6-3.6
	c0-2,3.6-3,10.2-4.6c15.7-3,21.3-7.6,22.9-29c1.5-28.9,2.5-67,2.5-140.7c0-71.1-2-98-3-114.3c-1-14.7-2-21.8-23.4-25.4
	c-4.6-1-8.6-2-8.6-4.6c0-1.5,2.5-3,9.1-3c7.1,0,19.3,2,37.6,2c18.8,0,37.6-2.5,54.3-2.5C132,179.6,151.9,185.1,168.6,197.3z
	 M67.5,190.7c-1,0.5-2.5,0.5-3,8.6C64,209.5,64,317.2,64,325.3c0,7.6,2,9.1,3.6,9.1c3,0.5,9.7,0.5,13.7,0.5
	c14.7,0,46.2-4.1,56.4-10.7c14.2-10.2,30.5-31,30.5-58.4c0-26.9-8.1-46.2-21.3-58.4c-13.7-12.7-32-20.3-62.5-20.3
	C77.7,187.2,70.1,189.2,67.5,190.7z"/>
<path fill="#231F20" d="M462.8,5c6.2,4,8.1,9.9,8.1,13.9c0,5.3-4.3,8.6-6.4,8.6c-2.7,0-4.9-1.3-5.8-4.6c-0.1-0.6,0.1-1.5,0.6-1.9
	c2.5-2.5,4.3-6.2,4.3-9.3c0-3.8-4.4-6.7-7.7-6.7c-3,0-7.2,1.5-9.9,5.6c-2.4,3.6-1.9,10.2-1.5,12.9c0.3,2.8,0.3,4.7-0.4,6.2
	c-1.5,3-4.1,5-6.7,5c-1.2,0-4.3,0-6.5-1.8c-2.4-2.1-2.8-7.4-2.8-9.2c0-1.2-1.2-3-3.7-0.4c-1.3,1-5,5.9-6.1,12.7
	c0,0.3-0.1,2.4,0.4,2.4c28.7,0.9,48.2,22,48.2,43.1c0,12.4-4.7,19.1-11.2,19.1c-4.1,0-7.5-3.4-7.5-7.5c0-1.3,0.9-4,1.9-4.9
	c0.9-0.7,1.3-1.3,2.1-1.2c0.4,0.1,1.6,0.4,2.8,0.4c3.4,0,5.6-3.6,5.6-8.9c0-4.7-1.9-9.9-4.1-13.8c-0.1-0.3-0.7-1-0.9-1
	c-1.5,0-3.4,3-4.6,5.8c-0.6,1.5-0.7,2.1-2.2,3s-3.4,1.9-7.1,1.9c-16.7,0-26.2-17.5-26.8-31.8c0-0.3-0.1-0.7-0.4-0.7
	c-8.1,0-14.2,2.1-16.6,3.8c-0.9,0.7-0.3,2.7,0.3,3.1c4.9,4.3,17.5,8,17.5,18.2c0,1.5-0.3,4-0.9,5.9c-1.8,8.3-8.1,10.5-12.7,12.6
	c-1.3,0.6-1.5,0.3-1.2-0.6c0.6-1.3,0.4-6.4-0.6-7.7c-0.4-0.4-0.3-0.6-0.9-0.1c-1.6,1.6-2.5,1-4.4,6.7c-0.4,1.3-1.5,1-1.8,0.6
	c-1.3-1.2-2.8-6.1-2.2-11.5c0.3-1.9,0.1-3.6-0.4-5.3c-0.7-1.6-0.9-3.3-0.7-4.6c0-1.3,1.5-5.6,1.8-6.5c0.3-1,0.1-1-0.3-1
	c-2.8,0-9.2,4.6-9.2,15.8c0,2.2,0,4.3,0,6.8c0,4.7-4.6,8.4-6.2,8.9c-1.3,0.4-1.9,0.3-1.6-0.4c0.9-2.4,1.2-7.1-1.2-9.5
	c-1.5-1.3-2.7-3.4-2.8-4c0-0.4-0.4-0.1-1,0.3c-0.6,0.6-0.9,3.1-0.9,4.9c0,0.4-0.4,0.6-0.9,0.7c-10.4,2.4-13.5,7.2-13.5,10.5
	c0,3.1,2.1,4.3,4.4,4.3c1.8,0,3.8-0.9,4.4-1.2c0.4-0.3,0.7,0,1.2,0.4c0.6,0.6,1,2.1,1,3.1c0,3.6-4.3,4.6-5.5,4.6s-7.7-2.7-8.1-9.8
	c-0.1-1.5-0.1-3.6-0.6-6.4c-0.3-3.1-0.9-6.4-0.9-8.4c0-5.3,5.2-10.8,5.6-11.5c0.6-0.4,0.3-0.6-0.4-0.4c-2.8,0.1-7-0.1-8.3-0.7
	c-1.3-0.4-1.3-0.9-1.3-1.8c0-1.9,2.1-6.1,3.7-7.8c2.1-1.8,6.4-4.4,9.3-6.2c2.8-1.8,5-1,7.5-0.6c2.5,0.6,7,2.1,10.7,2.1
	c4,0,6.5-2.2,7.2-3.6c0.4-0.6,0.4-0.7-0.6-0.9c-0.9-0.1-5.9,0.1-7.5-0.6c-1.8-1-4.6-3-4.6-3.3c0-0.4,2.2-3,2.5-3.3
	c0.4-0.6,0.1-0.6-0.1-0.6c-1,0-4,0.6-5.6,0.6c-2.5,0-7.7-5.6-9-7.7c-0.6-1-0.4-1.6,0.1-2.4c3.3-4.4,7.1-6.7,8.7-6.7
	c3.3,0,6.1,0.6,8.1,1.3c0.6,0.1,0.6,0,0.4-0.9c-0.1-0.7-1.6-4-4.7-6.4c-0.9-0.7-1-1-0.6-1.9c0.4-0.7,1.8-1.9,3.1-2.4
	c2.2-1,7.8-3.3,11.7-3.3c8.1,0,14.5,6.1,15.8,11.1c0.6,1.9,0,4.3-0.6,6.1s-5,9.5-7,12.4c-1.9,3.1-0.9,5,0,5.9c0.9,1,1.5,1,2.1,0.6
	c4.3-2.2,12.3-4.6,18-4.9c0.4,0,0.6-0.4,0.6-0.9c1-9.9,4.7-18.3,8.1-22.9c3.6-4.9,11.2-13.9,25.9-13.9C449.9,0.7,455.6,0.1,462.8,5z
	 M453.5,61.2c0.1-0.3,0.3-1.2,0.1-1.6c-6.5-8.9-19.1-16.1-35.2-17.6c-0.6,0-0.6,0.3-0.6,0.9c-0.6,12.4,8.4,26.2,21.7,26.2
	C444.3,69,451.1,66.2,453.5,61.2z"/>
<path fill="#231F20" d="M495.7,0c14.6,0,22.3,9,25.9,13.9c3.4,4.6,7.1,13,8.1,22.9c0,0.4,0.1,0.9,0.6,0.9c5.8,0.3,13.8,2.7,18,4.9
	c0.6,0.4,1.2,0.4,2.1-0.6c0.9-0.9,1.9-2.8,0-5.9c-1.9-3-6.4-10.7-7-12.4s-1.2-4.1-0.6-6.1c1.3-5,7.7-11.1,15.8-11.1
	c3.8,0,9.5,2.2,11.7,3.3c1.3,0.4,2.7,1.6,3.1,2.4c0.4,0.9,0.3,1.2-0.6,1.9c-3.1,2.4-4.6,5.6-4.7,6.4c-0.1,0.9-0.1,1,0.4,0.9
	c2.1-0.7,4.9-1.3,8.1-1.3c1.6,0,5.5,2.2,8.7,6.7c0.6,0.7,0.7,1.3,0.1,2.4c-1.3,2.1-6.5,7.7-9,7.7c-1.6,0-4.6-0.6-5.6-0.6
	c-0.3,0-0.6,0-0.1,0.6c0.3,0.3,2.5,2.8,2.5,3.3c0,0.3-2.8,2.2-4.6,3.3c-1.6,0.7-6.7,0.4-7.5,0.6c-1,0.1-1,0.3-0.6,0.9
	c0.7,1.3,3.3,3.6,7.2,3.6c3.7,0,8.1-1.5,10.7-2.1c2.5-0.4,4.7-1.2,7.5,0.6c3,1.8,7.2,4.4,9.3,6.2c1.6,1.8,3.7,5.9,3.7,7.8
	c0,0.9,0,1.3-1.3,1.8c-1.3,0.6-5.5,0.9-8.3,0.7c-0.7-0.1-1,0-0.4,0.4c0.4,0.7,5.6,6.2,5.6,11.5c0,2.1-0.6,5.3-0.9,8.4
	c-0.4,2.8-0.4,4.9-0.6,6.4c-0.4,7.1-7,9.8-8.1,9.8s-5.5-1-5.5-4.6c0-1,0.4-2.5,1-3.1c0.4-0.4,0.7-0.7,1.2-0.4
	c0.6,0.3,2.7,1.2,4.4,1.2c2.4,0,4.4-1.2,4.4-4.3c0-3.3-3.1-8.1-13.5-10.5c-0.4-0.1-0.9-0.3-0.9-0.7c0-1.8-0.3-4.3-0.9-4.9
	c-0.6-0.4-1-0.7-1-0.3c-0.1,0.6-1.3,2.7-2.8,4c-2.4,2.4-2.1,7.1-1.2,9.5c0.3,0.7-0.3,0.9-1.6,0.4c-1.6-0.4-6.2-4.1-6.2-8.9
	c0-2.5,0-4.6,0-6.8c0-11.2-6.4-15.8-9.2-15.8c-0.4,0-0.6,0-0.3,1c0.3,0.9,1.8,5.2,1.8,6.5c0.1,1.3,0,3-0.7,4.6
	c-0.6,1.8-0.7,3.4-0.4,5.3c0.6,5.5-0.9,10.4-2.2,11.5c-0.3,0.4-1.3,0.7-1.8-0.6c-1.9-5.6-2.8-5-4.4-6.7c-0.6-0.4-0.4-0.3-0.9,0.1
	c-1,1.3-1.2,6.4-0.6,7.7c0.3,0.9,0.1,1.2-1.2,0.6c-4.6-2.1-10.9-4.3-12.7-12.6c-0.6-1.9-0.9-4.4-0.9-5.9c0-10.2,12.6-13.9,17.5-18.2
	c0.6-0.4,1.2-2.4,0.3-3.1c-2.4-1.8-8.4-3.8-16.6-3.8c-0.3,0-0.4,0.4-0.4,0.7c-0.6,14.4-10.1,31.8-26.8,31.8c-3.7,0-5.6-1-7.1-1.9
	s-1.6-1.5-2.2-3c-1.2-2.8-3.1-5.8-4.6-5.8c-0.1,0-0.7,0.7-0.9,1c-2.2,3.8-4.1,9-4.1,13.8c0,5.3,2.2,8.9,5.6,8.9
	c1.2,0,2.4-0.3,2.8-0.4c0.7-0.1,1.2,0.4,2.1,1.2c1,0.9,1.9,3.6,1.9,4.9c0,4.1-3.4,7.5-7.5,7.5c-6.5,0-11.2-6.7-11.2-19.1
	c0-21,19.5-42.2,48.2-43.1c0.6,0,0.4-2.1,0.4-2.4c-1-6.8-4.7-11.7-6.1-12.7c-2.5-2.5-3.7-0.7-3.7,0.4c0,1.8-0.4,7.1-2.8,9.2
	c-2.2,1.8-5.3,1.8-6.5,1.8c-2.5,0-5.2-2.1-6.7-5c-0.7-1.5-0.7-3.4-0.4-6.2c0.4-2.7,0.9-9.3-1.5-12.9c-2.7-4.1-7-5.6-9.9-5.6
	c-3.3,0-7.7,2.8-7.7,6.7c0,3.1,1.8,6.8,4.3,9.3c0.4,0.4,0.7,1.3,0.6,1.9c-0.9,3.3-3.1,4.6-5.8,4.6c-2.1,0-6.4-3.3-6.4-8.6
	c0-4,1.9-9.9,8.1-13.9C489.1-0.6,494.8,0,495.7,0z M505.1,68.4c13.3,0,22.3-13.8,21.7-26.2c0-0.6,0-0.9-0.6-0.9
	c-16.1,1.5-28.7,8.7-35.2,17.6c-0.1,0.4,0,1.3,0.1,1.6C493.6,65.6,500.4,68.4,505.1,68.4z"/>
<path fill="#231F20" d="M483.4,217.2c0,6.3-5.1,11.3-11.3,11.3c-6.2,0-11.3-5.1-11.3-11.3c0-6.2,5.1-11.3,11.3-11.3
	C478.3,205.9,483.4,210.9,483.4,217.2z"/>
<path fill="#231F20" d="M485.8,167.1c0,6.3-5.1,11.3-11.3,11.3c-6.3,0-11.3-5.1-11.3-11.3c0-6.2,5.1-11.3,11.3-11.3
	C480.8,155.7,485.8,160.8,485.8,167.1z"/>
<path fill="#231F20" d="M474.8,141.7c0,6.3-5.1,11.3-11.3,11.3c-6.3,0-11.3-5.1-11.3-11.3c0-6.3,5.1-11.3,11.3-11.3
	C469.7,130.3,474.8,135.4,474.8,141.7z"/>
<path fill="#231F20" d="M502.1,141.7c0,6.3-5.1,11.3-11.3,11.3c-6.3,0-11.3-5.1-11.3-11.3c0-6.3,5.1-11.3,11.3-11.3
	C497,130.3,502.1,135.4,502.1,141.7z"/>
<path fill="#231F20" d="M528.7,141.7c0,6.3-5.1,11.3-11.3,11.3c-6.3,0-11.3-5.1-11.3-11.3c0-6.3,5.1-11.3,11.3-11.3
	C523.7,130.3,528.7,135.4,528.7,141.7z"/>
<path fill="#231F20" d="M448.6,140.9c0,6.3-5.1,11.3-11.3,11.3c-6.3,0-11.3-5.1-11.3-11.3c0-6.2,5.1-11.3,11.3-11.3
	C443.6,129.6,448.6,134.7,448.6,140.9z"/>
<path fill="#231F20" d="M457.9,167c0,6.2-5.1,11.3-11.3,11.3c-6.3,0-11.3-5.1-11.3-11.3c0-6.2,5.1-11.3,11.3-11.3
	C452.9,155.6,457.9,160.7,457.9,167z"/>
<path fill="#231F20" d="M512.5,167.1c0,6.3-5.1,11.3-11.3,11.3c-6.3,0-11.3-5.1-11.3-11.3c0-6.2,5.1-11.3,11.3-11.3
	C507.4,155.7,512.5,160.8,512.5,167.1z"/>
<path fill="#231F20" d="M470.3,191.6c0,6.3-5.1,11.3-11.3,11.3c-6.3,0-11.3-5.1-11.3-11.3c0-6.2,5.1-11.3,11.3-11.3
	C465.3,180.2,470.3,185.3,470.3,191.6z"/>
<circle fill="#231F20" cx="489.4" cy="192.2" r="11.3"/>
</svg>
