<?xml version="1.0" encoding="utf-8"?>
<!-- Generator: Adobe Illustrator 15.0.2, SVG Export Plug-In . SVG Version: 6.00 Build 0)  -->
<!DOCTYPE svg PUBLIC "-//W3C//DTD SVG 1.1//EN" "http://www.w3.org/Graphics/SVG/1.1/DTD/svg11.dtd">
<svg version="1.1" id="Layer_1" xmlns="http://www.w3.org/2000/svg" xmlns:xlink="http://www.w3.org/1999/xlink" x="0px" y="0px"
	 width="1236px" height="644px" viewBox="-271.5 44.5 1236 644" enable-background="new -271.5 44.5 1236 644" xml:space="preserve"
	>
<title>Flag of Slovenia</title>
<rect x="-253.5" y="66.5" fill="#ED1C24" width="1200" height="600"/>
<rect x="-253.5" y="66.5" fill="#005DA4" width="1200" height="400"/>
<rect x="-253.5" y="66.5" fill="#FFFFFF" width="1200" height="200"/>
<g transform="translate(2.2238 1) scale(.12937)">
	<path fill="#005DA4" d="M1790.202,1437.299l48.696-718.725c-379.748-179.959-820.223-179.959-1199.971,0l48.696,718.725
		c21.876,322.959,241.419,598.634,551.289,692.229C1548.783,2035.933,1768.326,1760.258,1790.202,1437.299"/>
	<path fill="#FFFFFF" d="M788.926,1534.683c52.161,234.776,222.578,425.583,449.987,503.839
		c227.417-78.256,397.826-269.062,449.987-503.839l-224.994-299.989l-89.994,120l-134.999-269.999l-134.999,269.999l-89.994-120
		L788.926,1534.683"/>
	<g id="wave" transform="scale(5) translate(0 5.1962)">
		<path fill="#005DA4" d="M161.804,316.741c8.285,14.347,26.631,19.264,40.98,10.982c0,0,0,0,0-0.001c9.282-5.358,20.718-5.358,30,0
			c9.283,5.359,20.718,5.359,30,0c9.282-5.358,20.718-5.358,30,0c14.348,8.284,32.696,3.367,40.981-10.98l0,0v8.66
			c-8.285,14.348-26.631,19.264-40.981,10.983c0,0,0,0,0-0.003c-9.282-5.357-20.718-5.357-30,0c-9.283,5.359-20.718,5.359-30,0
			c-9.282-5.357-20.718-5.357-30,0c-14.348,8.285-32.695,3.37-40.978-10.979c-0.002,0-0.002,0-0.002,0V316.741z"/>
	</g>
	<g transform="translate(0 17.321)">
		<g id="wave_1_" transform="scale(5) translate(0 5.1962)">
			<path fill="#005DA4" d="M161.804,334.061c8.285,14.348,26.631,19.266,40.98,10.982l0,0c9.282-5.359,20.718-5.359,30,0
				c9.283,5.359,20.718,5.359,30,0c9.282-5.359,20.718-5.359,30,0c14.348,8.284,32.696,3.368,40.981-10.98v-0.002v8.66
				c-8.285,14.348-26.631,19.267-40.981,10.983l0,0c-9.282-5.359-20.718-5.359-30,0c-9.283,5.358-20.718,5.358-30,0
				c-9.282-5.359-20.718-5.359-30,0c-14.348,8.284-32.695,3.368-40.978-10.98c-0.002,0-0.002,0-0.002,0V334.061z"/>
		</g>
	</g>
	<g id="s" transform="translate(0,-120) scale(2.25)">
		<path fill="#FFDD00" d="M550.628,443.757l4.999,16.339l16.651-3.838l-11.648,12.5l11.648,12.5l-16.651-3.841l-4.999,16.339
			l-4.999-16.339l-16.651,3.841l11.648-12.5l-11.648-12.5l16.651,3.838L550.628,443.757z"/>
	</g>
	<g transform="translate(-33.75,-45)">
		<g id="s_1_" transform="translate(0,-120) scale(2.25)">
			<path fill="#FFDD00" d="M475.632,343.759l4.999,16.34l16.651-3.838L485.63,368.76l11.652,12.5l-16.651-3.841l-4.999,16.34
				l-5.002-16.34l-16.651,3.841l11.652-12.5l-11.652-12.499l16.651,3.838L475.632,343.759z"/>
		</g>
	</g>
	<g transform="translate(33.75,-45)">
		<g id="s_2_" transform="translate(0,-120) scale(2.25)">
			<path fill="#FFDD00" d="M625.627,343.759l4.999,16.34l16.652-3.838l-11.653,12.499l11.653,12.5l-16.652-3.841l-4.999,16.34
				l-5.002-16.34l-16.651,3.841l11.652-12.5l-11.652-12.499l16.651,3.838L625.627,343.759z"/>
		</g>
	</g>
	<path fill="#ED1C24" d="M681.026,699.461l49.806,734.932c20.351,300.178,221.665,557.615,508.081,649.731
		c286.417-92.108,487.73-349.553,508.089-649.731l49.798-734.932c13.927,6.597,27.96,12.969,42.099,19.098l-48.696,718.732
		c-21.876,322.959-241.419,598.634-551.289,692.229c-309.87-93.595-529.414-369.27-551.289-692.229l-48.696-718.732
		C653.066,712.429,667.106,706.058,681.026,699.461"/>
</g>
</svg>
