<?xml version="1.0" encoding="utf-8"?>
<!-- Generator: Adobe Illustrator 15.0.2, SVG Export Plug-In  -->
<!DOCTYPE svg PUBLIC "-//W3C//DTD SVG 1.1//EN" "http://www.w3.org/Graphics/SVG/1.1/DTD/svg11.dtd" [
	<!ENTITY ns_flows "http://ns.adobe.com/Flows/1.0/">
]>
<svg version="1.1"
	 xmlns="http://www.w3.org/2000/svg" xmlns:xlink="http://www.w3.org/1999/xlink" xmlns:a="http://ns.adobe.com/AdobeSVGViewerExtensions/3.0/"
	 x="0px" y="0px" width="1024px" height="768px" viewBox="-93.854 -50.69 1024 768"
	 overflow="visible" enable-background="new -93.854 -50.69 1024 768" xml:space="preserve">
<defs>
</defs>
<path fill="#231F20" d="M781.988,28.784c41.471,26.659,54.303,66.153,54.303,92.812c0,35.545-28.631,57.267-42.453,57.267
	c-17.774,0-32.584-8.886-38.508-30.608c-0.987-3.949,0.987-9.874,3.949-12.836c16.784-16.785,28.634-41.469,28.634-62.203
	c0-25.671-29.621-44.432-51.342-44.432c-19.748,0-48.381,9.874-66.155,37.52c-15.797,23.697-12.835,68.128-9.873,85.9
	c1.976,18.76,1.976,31.596-2.962,41.469c-9.873,19.748-27.646,33.57-44.432,33.57c-7.897,0-28.633,0-43.443-11.848
	c-15.798-13.823-18.76-49.368-18.76-61.216c0-7.899-7.899-19.748-24.684-2.962c-8.887,6.912-33.57,39.495-40.483,84.913
	c0,1.975-0.985,15.798,2.964,15.798c191.547,5.924,321.883,147.117,321.883,287.322c0,82.938-31.599,127.37-75.043,127.37
	c-27.646,0-50.356-22.709-50.356-50.356c0-8.886,5.925-26.657,12.836-32.582c5.924-4.937,8.888-8.886,13.824-7.898
	c2.961,0.986,10.86,2.962,18.76,2.962c22.708,0,37.519-23.696,37.519-59.242c0-31.595-12.835-66.152-27.646-91.824
	c-0.987-1.974-4.937-6.91-5.924-6.91c-9.874,0-22.709,19.747-30.609,38.507c-3.949,9.873-4.937,13.822-14.811,19.747
	c-9.874,5.922-22.709,12.835-47.393,12.835c-111.572,0-174.763-116.509-178.712-212.283c0-1.975-0.987-4.937-2.962-4.937
	c-54.305,0-94.786,13.823-110.584,25.672c-5.925,4.937-1.976,17.772,1.975,20.734c32.582,28.633,116.508,53.317,116.508,121.446
	c0,9.873-1.975,26.659-5.924,39.494c-11.848,55.293-54.305,70.104-84.913,83.927c-8.886,3.949-9.873,1.974-7.899-3.949
	c3.95-8.888,2.963-42.458-3.948-51.344c-2.963-2.962-1.975-3.949-5.925-0.988c-10.86,10.861-16.785,6.913-29.62,44.432
	c-2.962,8.886-9.874,6.913-11.849,3.949c-8.887-7.898-18.761-40.48-14.811-77.014c1.975-12.835,0.987-23.696-2.962-35.544
	c-4.937-10.861-5.925-21.723-4.937-30.608c0-8.886,9.873-37.52,11.848-43.444c1.975-6.912,0.988-6.912-1.975-6.912
	c-18.76,0-61.217,30.608-61.217,105.646c0,14.811,0,28.636,0,45.42c0,31.597-30.607,56.278-41.469,59.242
	c-8.886,2.961-12.836,1.974-10.86-2.964c5.924-15.796,7.898-47.393-7.899-63.188c-9.874-8.889-17.772-22.711-18.76-26.66
	c0-2.961-2.962-0.987-6.911,1.976c-3.95,3.949-5.925,20.733-5.925,32.583c0,2.961-2.962,3.948-5.924,4.937
	c-69.115,15.798-89.85,48.381-89.85,70.102c0,20.735,13.823,28.633,29.62,28.633c11.849,0,25.672-5.922,29.621-7.897
	c2.963-1.974,4.937,0,7.899,2.963c3.949,3.949,6.911,13.823,6.911,20.733c0,23.696-28.633,30.608-36.532,30.608
	s-51.343-17.771-54.305-65.167c-0.987-9.873-0.987-23.696-3.95-42.456c-1.974-20.734-5.924-42.455-5.924-56.278
	c0-35.546,34.558-72.077,37.52-77.014c3.95-2.964,1.975-3.951-2.962-2.964c-18.76,0.988-46.405-0.987-55.292-4.937
	C0,414.843,0,411.879,0,405.957c0-12.838,13.822-40.482,24.684-52.33c13.823-11.85,42.456-29.622,62.204-41.471
	c18.759-11.848,33.569-6.912,50.354-3.95c16.785,3.95,46.406,13.824,71.091,13.824c26.658,0,43.443-14.811,48.381-23.697
	c2.961-3.95,2.961-4.937-3.95-5.924c-5.924-0.988-39.494,0.987-50.355-3.95c-11.849-6.912-30.607-19.747-30.607-21.722
	c0-2.962,14.811-19.748,16.784-21.722c2.963-3.95,0.987-3.95-0.986-3.95c-6.912,0-26.659,3.95-37.521,3.95
	c-16.785,0-51.343-37.52-60.229-51.343c-3.95-6.911-2.962-10.861,0.986-15.798c21.723-29.621,47.395-44.431,58.255-44.431
	c21.722,0,40.481,3.949,54.305,8.886c3.949,0.987,3.949,0,2.963-5.925c-0.988-4.937-10.861-26.659-31.596-42.456
	c-5.925-4.937-6.912-6.912-3.95-12.836c2.962-4.937,11.849-12.835,20.735-15.798c14.811-6.911,52.329-21.722,78.001-21.722
	c54.305,0,96.762,40.482,105.647,74.052c3.949,12.835,0,28.633-3.949,40.481c-3.949,11.849-33.57,63.191-46.405,82.938
	c-12.836,20.734-5.925,33.57,0,39.494c5.923,6.912,9.873,6.912,13.822,3.95c28.634-14.811,81.951-30.608,120.458-32.583
	c2.962,0,3.949-2.962,3.949-5.924c6.912-66.153,31.596-122.433,54.305-153.041C541.073,60.379,592.415,0.15,690.164,0.15
	C696.088,0.15,733.607-3.799,781.988,28.784z M719.785,403.98c0.987-1.973,1.976-7.897,0.987-10.861
	c-43.443-59.241-127.37-107.622-234.993-117.496c-3.948,0-3.948,1.975-3.948,5.924c-3.949,82.938,56.28,174.763,145.142,174.763
	C658.569,456.311,703.986,437.551,719.785,403.98z"/>
</svg>
