<?xml version="1.0" encoding="utf-8"?>
<!-- Generator: Adobe Illustrator 15.0.2, SVG Export Plug-In  -->
<!DOCTYPE svg PUBLIC "-//W3C//DTD SVG 1.1//EN" "http://www.w3.org/Graphics/SVG/1.1/DTD/svg11.dtd" [
	<!ENTITY ns_flows "http://ns.adobe.com/Flows/1.0/">
]>
<svg version="1.1"
	 xmlns="http://www.w3.org/2000/svg" xmlns:xlink="http://www.w3.org/1999/xlink" xmlns:a="http://ns.adobe.com/AdobeSVGViewerExtensions/3.0/"
	 x="0px" y="0px" width="1024px" height="584px" viewBox="-6.501 -22.444 1024 584"
	 overflow="visible" enable-background="new -6.501 -22.444 1024 584" xml:space="preserve">
<defs>
</defs>
<path fill="#231F20" d="M167.76,103.999c15.764,0,38.745,2.624,57.788,2.624c14.44,0,25.607-1.313,38.738-1.313
	c9.851,0,13.136,1.972,13.136,4.596c0,3.283-3.285,5.258-11.161,6.568c-20.359,3.279-19.701,12.475-15.105,22.981
	c28.236,70.917,95.868,219.97,141.832,320.434c1.97,4.596,4.597,3.282,5.91,0c22.322-45.965,38.08-80.11,57.781-126.072
	c1.317-1.313,1.317-6.565,1.317-7.224c-12.479-28.235-53.191-124.758-67.64-156.275c-19.042-42.024-23.632-49.248-43.333-54.502
	c-12.479-2.627-14.447-5.251-14.447-7.879c0-1.969,3.938-3.938,11.819-3.938c19.702,0,26.267,2.624,49.906,2.624
	c24.949,0,32.825-2.624,49.899-2.624c5.913,0,11.161,1.311,11.161,3.938c0,3.283-5.248,5.251-11.813,6.568
	c-20.359,3.938-26.267,13.13-15.104,40.71c11.816,30.201,28.232,67.632,53.186,127.386c0.658,1.312,2.627,1.969,4.596-1.316
	c19.702-40.056,30.204-65.002,44.651-97.834c23.64-56.468,22.987-62.377-5.255-68.284c-12.479-2.63-13.136-4.599-13.136-7.227
	c0-1.969,3.94-3.282,11.816-3.282c17.08,0,25.614,1.969,42.688,1.969c26.919,0,33.48-2.624,49.894-2.624
	c7.235,0,10.509,0.655,10.509,3.282c0,2.624-3.271,4.593-12.479,6.567c-25.607,5.905-38.737,22.324-59.743,59.751
	c-19.043,36.772-57.13,112.938-63.694,126.072c-0.655,1.312-0.655,3.938,0.658,7.22c19.695,45.968,45.305,103.091,68.291,154.312
	c2.62,5.252,3.934,4.597,5.906,0.653c34.142-74.854,118.842-270.528,130.668-316.496c2.621-12.472,2.621-24.292-19.043-30.856
	c-10.516-2.63-14.447-3.941-14.447-6.568s1.971-3.938,11.155-3.938c17.074,0,24.956,2.624,45.974,2.624
	c17.724,0,35.453-2.624,47.934-2.624c9.197,0,11.161,1.311,11.161,3.282c0,2.624-3.285,4.593-15.767,7.224
	c-28.887,7.224-39.396,24.95-79.442,112.938c-40.707,87.33-106.376,244.92-126.729,291.54c-3.932,10.506-5.913,15.104-9.187,15.104
	c-3.95,0-6.571-4.599-9.856-15.104c-13.79-40.712-48.584-117.537-70.254-166.783c-1.317-1.975-3.286-2.63-4.597-0.658
	c-24.949,49.902-59.757,129.354-73.545,166.127c-4.596,10.509-7.227,16.415-10.503,16.415c-3.285,0-4.596-4.599-9.192-16.415
	c-8.534-21.016-29.546-70.915-38.086-90.613c-36.111-84.706-74.855-171.381-106.37-239.665
	c-26.925-58.443-32.838-69.607-58.446-72.887c-7.217-0.657-13.13-3.286-13.13-5.913C154.63,106.623,159.226,103.999,167.76,103.999z
	"/>
<path fill="#231F20" d="M767.743,221.66c-1.152-29.207-0.386-35.25-17.062-40.79c-4.267-1.006-6.188-3.02-6.188-4.533
	c0-2.517,2.323-3.021,6.577-3.021c6.205,0,17.445,2.517,29.091,2.517c9.686,0,24.038-2.013,29.077-2.013
	c4.267,0,5.815,1.01,5.815,3.023c0,1.507-1.938,3.523-5.046,4.026c-13.96,4.03-15.896,12.085-17.065,28.704
	c-0.772,12.085-1.151,97.181-1.151,106.75c0,5.033,0.766,9.566,3.096,10.073c10.857,1.003,69.024,0.5,107.401,0.5
	c35.675,0,40.321-1.514,42.265-1.514c2.71-0.5,3.108-1.507,3.495-9.062c0.772-16.615-0.785-73.516-1.558-92.146
	c-1.152-31.724-1.152-40.786-18.223-43.81c-3.105-0.503-5.433-2.016-5.433-4.029c0-1.003,1.552-2.517,5.046-2.517
	c8.534,0,21.702,2.013,33.346,2.013c12.018,0,20.932-2.013,27.912-2.013c4.263,0,6.203,0.503,6.203,2.517
	c0,1.513-1.158,3.026-5.425,4.533c-17.062,4.533-17.834,13.596-17.834,37.263c-0.387,20.142,0,90.635,0.771,125.379
	c0.771,34.24,0.771,55.391,1.938,107.756c0.772,25.178,2.716,31.729,19.392,36.254c4.27,1.519,5.812,2.521,5.812,4.536
	c0,2.01-1.943,3.02-5.812,3.02c-5.432,0-26.365-1.51-34.896-1.51c-7.363,0-19.776,1.007-26.754,1.007
	c-4.653,0-7.375-1.007-7.375-3.523c0-1.507,1.557-3.021,6.204-4.026c13.187-3.523,17.064-6.546,17.454-28.197
	c0.379-25.678,1.163-94.163,0.379-104.229c-0.379-7.053-0.379-12.086-2.709-12.086c-12.408-1.01-67.854-2.013-105.854-2.013
	c-18.22,0-41.87-0.51-46.521-0.51c-1.172,0-2.71,4.026-2.71,12.591c0,62.438,2.32,108.258,3.881,118.332
	c1.538,10.57,7.749,14.604,15.104,17.116c5.438,1.517,6.6,3.523,6.6,5.04c0,2.012-2.717,3.021-6.6,3.021
	c-7.354,0-20.154-2.521-31.786-2.521c-9.688,0-22.485,2.016-28.306,2.016c-3.881,0-6.205-1.516-6.205-3.021
	c0-2.52,2.726-4.029,6.591-5.039c13.184-3.521,15.909-8.557,16.679-24.168c0.771-15.604,1.557-51.855,1.557-130.918
	C768.914,306.252,768.516,240.792,767.743,221.66z"/>
<path fill="#231F20" d="M175.73,195.646c21.657,15.612,31.224,38.27,31.224,60.424c0,33.74-17.119,48.342-28.704,57.404
	c-8.56,7.553-22.658,13.599-30.717,16.618c-2.014,1.007-1.007,4.53,1.013,9.566c10.066,19.638,42.796,71,56.895,90.132
	c15.612,21.148,26.185,33.733,36.764,44.312c16.111,16.111,30.711,20.646,39.776,20.646c4.032,0,6.546,1.507,6.546,3.02
	c0,1.007-2.014,2.52-6.046,4.026c-4.026,1.514-12.079,2.014-19.132,2.014c-30.717,0-50.855-16.618-69.486-39.773
	c-25.685-32.73-67.98-102.221-75.027-110.78c-5.032-5.536-9.565-10.068-15.611-11.578c-5.033-1.514-12.086-2.521-25.178-2.017
	c-2.52,0-4.532,2.017-5.033,4.026c-1.006,5.033-1.513,69.49-1.006,89.629c0.5,23.161,2.513,41.289,4.026,45.822
	c2.013,6.039,5.539,11.078,23.671,14.099c5.533,1.01,7.546,2.016,7.546,4.026c0,2.021-4.026,3.526-10.065,3.526
	c-10.579,0-20.145-2.52-37.264-2.52c-18.632,0-33.236,2.52-42.803,2.52c-5.033,0-8.559-1.008-8.559-3.526
	c0-2.014,3.525-3.02,10.072-4.53c15.611-3.021,21.145-7.556,22.657-28.699c1.507-28.702,2.521-66.469,2.521-139.479
	c0-70.497-2.014-97.184-3.026-113.296c-1.007-14.605-2.014-21.651-23.158-25.178c-4.533-1.007-8.56-2.013-8.56-4.533
	c0-1.506,2.514-3.02,9.06-3.02c7.053,0,19.138,2.013,37.263,2.013c18.632,0,37.264-2.52,53.882-2.52
	C139.48,178.021,159.118,183.564,175.73,195.646z M75.526,189.101c-1.007,0.507-2.514,0.507-3.02,8.562
	c-0.5,10.069-0.5,116.819-0.5,124.879c0,7.552,2.013,9.059,3.52,9.059c3.026,0.507,9.572,0.507,13.599,0.507
	c14.605,0,45.822-4.026,55.895-10.575c14.099-10.066,30.211-30.718,30.211-57.905c0-26.688-8.053-45.822-21.151-57.908
	c-13.592-12.589-31.718-20.142-61.935-20.142C85.599,185.578,78.046,187.594,75.526,189.101z"/>
<linearGradient id="SVGID_1_" gradientUnits="userSpaceOnUse" x1="-51.3979" y1="82.2202" x2="418.2113" y2="398.9757" gradientTransform="matrix(1 0 0 1 232 -27)">
	<stop  offset="0" style="stop-color:#E5E2DF"/>
	<stop  offset="0" style="stop-color:#DED9D6"/>
	<stop  offset="0.0426" style="stop-color:#C2BDBD"/>
	<stop  offset="0.091" style="stop-color:#AAA5A8"/>
	<stop  offset="0.1422" style="stop-color:#999499"/>
	<stop  offset="0.1974" style="stop-color:#8E8A90"/>
	<stop  offset="0.264" style="stop-color:#8B878D"/>
	<stop  offset="0.5225" style="stop-color:#F3F4F4"/>
	<stop  offset="0.5842" style="stop-color:#E5E5E6"/>
	<stop  offset="0.7027" style="stop-color:#C0BEC0"/>
	<stop  offset="0.8647" style="stop-color:#858085"/>
	<stop  offset="0.8764" style="stop-color:#807B80"/>
	<stop  offset="1" style="stop-color:#D1D3D4"/>
	<stop  offset="1" style="stop-color:#A7A9AC"/>
</linearGradient>
<path fill="url(#SVGID_1_)" d="M159.2,102.286c15.765,0,38.745,2.625,57.781,2.625c14.447,0,25.608-1.314,38.745-1.314
	c9.851,0,13.137,1.972,13.137,4.596c0,3.284-3.286,5.256-11.168,6.565c-20.354,3.286-19.695,12.478-15.105,22.987
	c28.242,70.912,95.868,219.964,141.836,320.431c1.969,4.597,4.596,3.282,5.913,0c22.322-45.965,38.079-80.106,57.781-126.075
	c1.311-1.311,1.311-6.562,1.311-7.217c-12.473-28.238-53.186-124.761-67.633-156.279c-19.043-42.023-23.639-49.25-43.34-54.5
	c-12.473-2.627-14.441-5.253-14.441-7.88c0-1.969,3.938-3.938,11.82-3.938c19.695,0,26.26,2.625,49.899,2.625
	c24.949,0,32.833-2.625,49.905-2.625c5.913,0,11.161,1.311,11.161,3.938c0,3.284-5.248,5.253-11.816,6.567
	c-20.354,3.942-26.27,13.131-15.102,40.711c11.812,30.205,28.235,67.632,53.188,127.382c0.656,1.317,2.627,1.969,4.597-1.312
	c19.701-40.057,30.204-65.004,44.65-97.835c23.634-56.471,22.979-62.384-5.255-68.289c-12.479-2.627-13.132-4.598-13.132-7.225
	c0-1.969,3.938-3.283,11.812-3.283c17.074,0,25.605,1.969,42.683,1.969c26.919,0,33.483-2.625,49.899-2.625
	c7.229,0,10.509,0.655,10.509,3.283c0,2.624-3.279,4.595-12.472,6.567c-25.607,5.908-38.744,22.324-59.756,59.751
	c-19.044,36.77-57.123,112.941-63.694,126.072c-0.652,1.312-0.652,3.938,0.658,7.224c19.692,45.961,45.31,103.091,68.29,154.307
	c2.628,5.252,3.938,4.6,5.913,0.655C591.91,385.29,676.623,189.613,688.434,143.65c2.63-12.475,2.63-24.297-19.044-30.861
	c-10.502-2.627-14.438-3.939-14.438-6.567s1.97-3.938,11.155-3.938c17.078,0,24.956,2.625,45.968,2.625
	c17.727,0,35.459-2.625,47.938-2.625c9.192,0,11.161,1.311,11.161,3.283c0,2.624-3.286,4.595-15.764,7.222
	c-28.888,7.225-39.396,24.954-79.445,112.94c-40.714,87.331-106.377,244.919-126.729,291.54
	c-3.938,10.506-5.913,15.104-9.192,15.104c-3.938,0-6.564-4.6-9.851-15.104c-13.789-40.713-48.592-117.537-70.263-166.778
	c-1.311-1.976-3.276-2.631-4.596-0.655c-24.949,49.896-59.75,129.354-73.539,166.126c-4.596,10.506-7.223,16.413-10.502,16.413
	c-3.286,0-4.597-4.6-9.199-16.413c-8.534-21.015-29.546-70.917-38.08-90.619c-36.116-84.705-74.854-171.377-106.374-239.667
	c-26.919-58.439-32.832-69.601-58.44-72.885c-7.217-0.655-13.13-3.283-13.13-5.912C146.07,104.911,150.667,102.286,159.2,102.286z"
	/>
<path fill="#2A29FF" d="M467.404,4.916c6.161,3.96,8.064,9.828,8.064,13.788c0,5.281-4.254,8.507-6.308,8.507
	c-2.643,0-4.84-1.32-5.72-4.547c-0.147-0.587,0.146-1.467,0.586-1.907c2.491-2.494,4.254-6.161,4.254-9.241
	c0-3.814-4.4-6.601-7.627-6.601c-2.937,0-7.188,1.467-9.828,5.574c-2.349,3.521-1.907,10.121-1.467,12.762
	c0.293,2.787,0.293,4.694-0.44,6.161c-1.467,2.934-4.104,4.987-6.601,4.987c-1.175,0-4.257,0-6.454-1.76
	c-2.35-2.054-2.787-7.334-2.787-9.095c0-1.173-1.173-2.934-3.667-0.44c-1.319,1.027-4.987,5.867-6.017,12.615
	c0,0.293-0.146,2.347,0.44,2.347c28.456,0.88,47.818,21.855,47.818,42.685c0,12.321-4.694,18.922-11.148,18.922
	c-4.104,0-7.479-3.374-7.479-7.481c0-1.32,0.88-3.96,1.904-4.84c0.881-0.733,1.32-1.32,2.057-1.173
	c0.438,0.146,1.61,0.44,2.783,0.44c3.375,0,5.574-3.521,5.574-8.801c0-4.694-1.903-9.828-4.104-13.642
	c-0.146-0.293-0.733-1.027-0.88-1.027c-1.47,0-3.373,2.934-4.549,5.721c-0.588,1.467-0.731,2.054-2.198,2.934
	c-1.47,0.88-3.374,1.907-7.041,1.907c-16.575,0-25.963-17.309-26.552-31.537c0-0.293-0.146-0.733-0.438-0.733
	c-8.067,0-14.082,2.054-16.429,3.813c-0.881,0.733-0.293,2.641,0.293,3.081c4.841,4.254,17.309,7.921,17.309,18.042
	c0,1.467-0.293,3.96-0.88,5.867c-1.76,8.214-8.067,10.415-12.614,12.468c-1.317,0.586-1.467,0.293-1.174-0.587
	c0.587-1.32,0.44-6.307-0.587-7.627c-0.439-0.44-0.293-0.587-0.88-0.146c-1.613,1.613-2.493,1.026-4.4,6.601
	c-0.438,1.32-1.467,1.027-1.76,0.586c-1.32-1.173-2.787-6.014-2.201-11.441c0.294-1.907,0.147-3.521-0.438-5.281
	c-0.733-1.613-0.881-3.227-0.733-4.547c0-1.32,1.467-5.574,1.76-6.454c0.294-1.027,0.147-1.027-0.293-1.027
	c-2.787,0-9.095,4.547-9.095,15.695c0,2.2,0,4.254,0,6.748c0,4.694-4.547,8.361-6.16,8.801c-1.32,0.44-1.907,0.293-1.613-0.44
	c0.88-2.347,1.173-7.041-1.174-9.388c-1.467-1.32-2.641-3.374-2.787-3.96c0-0.44-0.44-0.146-1.026,0.293
	c-0.587,0.587-0.881,3.081-0.881,4.84c0,0.44-0.439,0.587-0.88,0.733c-10.268,2.347-13.348,7.188-13.348,10.415
	c0,3.081,2.054,4.254,4.4,4.254c1.76,0,3.812-0.88,4.4-1.173c0.439-0.293,0.733,0,1.174,0.44c0.586,0.587,1.026,2.054,1.026,3.081
	c0,3.52-4.254,4.547-5.428,4.547c-1.173,0-7.627-2.64-8.067-9.681c-0.146-1.467-0.146-3.52-0.587-6.307
	c-0.293-3.081-0.88-6.308-0.88-8.361c0-5.281,5.134-10.708,5.574-11.441c0.587-0.44,0.293-0.587-0.44-0.44
	c-2.787,0.146-6.894-0.147-8.214-0.733c-1.32-0.44-1.32-0.88-1.32-1.76c0-1.907,2.054-6.014,3.667-7.774
	c2.054-1.76,6.308-4.4,9.241-6.161c2.787-1.76,4.987-1.027,7.48-0.586c2.494,0.586,6.895,2.053,10.562,2.053
	c3.96,0,6.454-2.2,7.188-3.52c0.438-0.587,0.438-0.733-0.587-0.88c-0.88-0.146-5.867,0.147-7.48-0.586
	c-1.761-1.027-4.548-2.934-4.548-3.227c0-0.44,2.201-2.934,2.494-3.227c0.44-0.587,0.146-0.587-0.146-0.587
	c-1.027,0-3.961,0.587-5.574,0.587c-2.493,0-7.628-5.574-8.947-7.627c-0.587-1.027-0.44-1.614,0.146-2.347
	c3.227-4.4,7.041-6.601,8.654-6.601c3.227,0,6.014,0.586,8.067,1.32c0.587,0.147,0.587,0,0.44-0.88
	c-0.147-0.733-1.614-3.96-4.694-6.307c-0.88-0.733-1.026-1.027-0.587-1.907c0.44-0.733,1.761-1.907,3.081-2.347
	c2.2-1.027,7.773-3.227,11.587-3.227c8.065,0,14.372,6.014,15.692,11.001c0.587,1.907,0,4.254-0.587,6.014
	c-0.586,1.76-4.986,9.388-6.894,12.321c-1.907,3.081-0.883,4.987,0,5.867c0.88,1.027,1.467,1.027,2.054,0.587
	c4.254-2.2,12.175-4.547,17.896-4.84c0.439,0,0.586-0.44,0.586-0.88c1.027-9.828,4.694-18.188,8.068-22.736
	c3.521-4.84,11.146-13.788,25.669-13.788C454.644,0.662,460.217,0.075,467.404,4.916z M458.163,60.655
	c0.146-0.293,0.294-1.173,0.146-1.613c-6.454-8.801-18.922-15.989-34.907-17.456c-0.59,0-0.59,0.293-0.59,0.88
	c-0.587,12.321,8.361,25.963,21.562,25.963C449.069,68.43,455.816,65.642,458.163,60.655z"/>
<path fill="#2A29FF" d="M499.974,0.022c14.521,0,22.149,8.948,25.669,13.788c3.374,4.547,7.041,12.908,8.068,22.736
	c0,0.44,0.146,0.88,0.586,0.88c5.721,0.293,13.645,2.64,17.896,4.84c0.587,0.44,1.174,0.44,2.054-0.587
	c0.88-0.88,1.907-2.787,0-5.867c-1.907-2.934-6.308-10.561-6.896-12.321c-0.587-1.76-1.174-4.107-0.587-6.014
	c1.32-4.987,7.628-11.001,15.694-11.001c3.814,0,9.388,2.2,11.588,3.227c1.32,0.44,2.644,1.613,3.081,2.347
	c0.439,0.88,0.293,1.174-0.587,1.907c-3.08,2.347-4.547,5.574-4.693,6.307c-0.146,0.88-0.146,1.027,0.439,0.88
	c2.054-0.733,4.841-1.32,8.067-1.32c1.61,0,5.428,2.2,8.651,6.601c0.587,0.733,0.733,1.32,0.146,2.347
	c-1.319,2.053-6.454,7.627-8.947,7.627c-1.613,0-4.547-0.587-5.574-0.587c-0.293,0-0.587,0-0.146,0.587
	c0.293,0.293,2.494,2.787,2.494,3.227c0,0.293-2.787,2.2-4.549,3.227c-1.612,0.733-6.603,0.44-7.479,0.586
	c-1.027,0.147-1.027,0.293-0.587,0.88c0.732,1.32,3.229,3.52,7.188,3.52c3.667,0,8.066-1.467,10.562-2.053
	c2.493-0.44,4.692-1.174,7.479,0.586c2.936,1.76,7.188,4.401,9.24,6.161c1.613,1.76,3.667,5.868,3.667,7.774
	c0,0.88,0,1.32-1.318,1.76c-1.319,0.586-5.429,0.88-8.215,0.733c-0.731-0.147-1.025,0-0.438,0.44
	c0.438,0.733,5.573,6.161,5.573,11.441c0,2.053-0.587,5.28-0.88,8.361c-0.439,2.787-0.439,4.84-0.588,6.307
	c-0.438,7.041-6.896,9.681-8.065,9.681c-1.174,0-5.429-1.027-5.429-4.547c0-1.027,0.438-2.494,1.024-3.081
	c0.44-0.44,0.734-0.733,1.174-0.44c0.589,0.293,2.644,1.173,4.4,1.173c2.347,0,4.399-1.173,4.399-4.254
	c0-3.227-3.079-8.067-13.35-10.415c-0.438-0.146-0.88-0.293-0.88-0.733c0-1.76-0.294-4.253-0.881-4.84
	c-0.586-0.44-1.025-0.733-1.025-0.293c-0.146,0.587-1.318,2.641-2.787,3.96c-2.348,2.347-2.055,7.041-1.175,9.388
	c0.294,0.733-0.293,0.88-1.611,0.44c-1.612-0.44-6.159-4.107-6.159-8.801c0-2.494,0-4.547,0-6.748
	c0-11.148-6.31-15.695-9.096-15.695c-0.439,0-0.588,0-0.293,1.027c0.293,0.88,1.761,5.134,1.761,6.454
	c0.146,1.32,0,2.934-0.733,4.547c-0.587,1.76-0.731,3.374-0.438,5.281c0.586,5.427-0.882,10.268-2.201,11.441
	c-0.293,0.44-1.319,0.734-1.761-0.586c-1.906-5.574-2.786-4.987-4.399-6.601c-0.587-0.44-0.44-0.293-0.88,0.146
	c-1.027,1.32-1.175,6.307-0.587,7.627c0.293,0.88,0.146,1.173-1.175,0.587c-4.548-2.054-10.854-4.254-12.613-12.468
	c-0.587-1.907-0.88-4.4-0.88-5.867c0-10.121,12.468-13.788,17.309-18.042c0.586-0.44,1.173-2.347,0.293-3.081
	c-2.347-1.76-8.359-3.813-16.429-3.813c-0.293,0-0.439,0.44-0.439,0.733c-0.587,14.228-9.975,31.537-26.55,31.537
	c-3.667,0-5.573-1.027-7.041-1.907c-1.467-0.88-1.612-1.467-2.2-2.934c-1.174-2.787-3.078-5.721-4.547-5.721
	c-0.146,0-0.73,0.733-0.88,1.027c-2.201,3.813-4.105,8.948-4.105,13.642c0,5.28,2.198,8.801,5.572,8.801
	c1.175,0,2.35-0.293,2.786-0.44c0.733-0.147,1.174,0.44,2.056,1.173c1.025,0.88,1.905,3.521,1.905,4.84
	c0,4.107-3.374,7.481-7.479,7.481c-6.454,0-11.148-6.601-11.148-18.922c0-20.829,19.362-41.805,47.818-42.685
	c0.587,0,0.438-2.054,0.438-2.347c-1.024-6.748-4.692-11.588-6.015-12.615c-2.494-2.494-3.667-0.733-3.667,0.44
	c0,1.76-0.439,7.041-2.787,9.095c-2.199,1.76-5.28,1.76-6.454,1.76c-2.493,0-5.134-2.053-6.601-4.987
	c-0.733-1.467-0.733-3.374-0.44-6.161c0.44-2.641,0.882-9.241-1.467-12.762c-2.642-4.107-6.896-5.574-9.828-5.574
	c-3.227,0-7.627,2.787-7.627,6.601c0,3.081,1.761,6.748,4.254,9.241c0.439,0.44,0.733,1.32,0.586,1.907
	c-0.88,3.227-3.079,4.547-5.72,4.547c-2.054,0-6.309-3.227-6.309-8.507c0-3.96,1.904-9.828,8.065-13.788
	C493.521-0.564,499.094,0.022,499.974,0.022z M509.361,67.791c13.2,0,22.146-13.642,21.562-25.963c0-0.587,0-0.88-0.587-0.88
	c-15.988,1.467-28.456,8.654-34.91,17.456c-0.146,0.44,0,1.32,0.146,1.613C497.92,65.004,504.667,67.791,509.361,67.791z"/>
<linearGradient id="SVGID_2_" gradientUnits="userSpaceOnUse" x1="469.3936" y1="251.9238" x2="792.149" y2="469.6252" gradientTransform="matrix(1 0 0 1 232 -27)">
	<stop  offset="0" style="stop-color:#E5E2DF"/>
	<stop  offset="0" style="stop-color:#DED9D6"/>
	<stop  offset="0.0426" style="stop-color:#C2BDBD"/>
	<stop  offset="0.091" style="stop-color:#AAA5A8"/>
	<stop  offset="0.1422" style="stop-color:#999499"/>
	<stop  offset="0.1974" style="stop-color:#8E8A90"/>
	<stop  offset="0.264" style="stop-color:#8B878D"/>
	<stop  offset="0.5225" style="stop-color:#F3F4F4"/>
	<stop  offset="0.5842" style="stop-color:#E5E5E6"/>
	<stop  offset="0.7027" style="stop-color:#C0BEC0"/>
	<stop  offset="0.8647" style="stop-color:#858085"/>
	<stop  offset="0.8764" style="stop-color:#807B80"/>
	<stop  offset="1" style="stop-color:#D1D3D4"/>
	<stop  offset="1" style="stop-color:#A7A9AC"/>
</linearGradient>
<path fill="url(#SVGID_2_)" d="M759.184,219.945c-1.155-29.204-0.38-35.247-17.062-40.783c-4.268-1.01-6.197-3.026-6.197-4.533
	c0-2.521,2.323-3.026,6.584-3.026c6.204,0,17.447,2.52,29.084,2.52c9.692,0,24.037-2.013,29.083-2.013
	c4.271,0,5.812,1.006,5.812,3.023c0,1.51-1.938,3.523-5.039,4.029c-13.953,4.027-15.896,12.083-17.062,28.701
	c-0.771,12.082-1.158,97.181-1.158,106.75c0,5.033,0.772,9.565,3.099,10.069c10.854,1.006,69.019,0.5,107.408,0.5
	c35.668,0,40.318-1.507,42.259-1.507c2.709-0.507,3.102-1.51,3.494-9.062c0.771-16.612-0.785-73.517-1.554-92.146
	c-1.164-31.724-1.164-40.786-18.221-43.809c-3.114-0.503-5.438-2.013-5.438-4.026c0-1.006,1.557-2.52,5.045-2.52
	c8.525,0,21.709,2.013,33.345,2.013c12.016,0,20.937-2.013,27.913-2.013c4.267,0,6.203,0.503,6.203,2.52
	c0,1.507-1.164,3.02-5.419,4.533c-17.067,4.533-17.841,13.592-17.841,37.26c-0.388,20.142,0,90.635,0.771,125.378
	c0.771,34.24,0.771,55.389,1.941,107.757c0.771,25.178,2.712,31.725,19.381,36.256c4.267,1.517,5.814,2.52,5.814,4.533
	s-1.94,3.021-5.814,3.021c-5.429,0-26.355-1.512-34.893-1.512c-7.368,0-19.774,1.012-26.754,1.012c-4.653,0-7.375-1.012-7.375-3.525
	c0-1.513,1.559-3.021,6.21-4.029c13.185-3.523,17.062-6.546,17.448-28.196c0.386-25.682,1.165-94.162,0.386-104.231
	c-0.386-7.05-0.386-12.086-2.709-12.086c-12.415-1.007-67.857-2.014-105.854-2.014c-18.224,0-41.872-0.506-46.525-0.506
	c-1.165,0-2.71,4.03-2.71,12.592c0,62.438,2.323,108.257,3.875,118.326c1.545,10.579,7.755,14.605,15.118,17.125
	c5.432,1.51,6.59,3.521,6.59,5.036c0,2.013-2.709,3.021-6.59,3.021c-7.363,0-20.164-2.521-31.794-2.521
	c-9.692,0-22.48,2.014-28.307,2.014c-3.882,0-6.202-1.509-6.202-3.021c0-2.517,2.716-4.024,6.59-5.033
	c13.188-3.521,15.9-8.559,16.682-24.171c0.769-15.604,1.545-51.855,1.545-130.918C760.349,304.543,759.956,239.083,759.184,219.945z
	"/>
<linearGradient id="SVGID_3_" gradientUnits="userSpaceOnUse" x1="-282.4517" y1="281.9512" x2="56.5616" y2="510.6185" gradientTransform="matrix(1 0 0 1 232 -27)">
	<stop  offset="0" style="stop-color:#E5E2DF"/>
	<stop  offset="0" style="stop-color:#DED9D6"/>
	<stop  offset="0.0426" style="stop-color:#C2BDBD"/>
	<stop  offset="0.091" style="stop-color:#AAA5A8"/>
	<stop  offset="0.1422" style="stop-color:#999499"/>
	<stop  offset="0.1974" style="stop-color:#8E8A90"/>
	<stop  offset="0.264" style="stop-color:#8B878D"/>
	<stop  offset="0.5225" style="stop-color:#F3F4F4"/>
	<stop  offset="0.5842" style="stop-color:#E5E5E6"/>
	<stop  offset="0.7027" style="stop-color:#C0BEC0"/>
	<stop  offset="0.8647" style="stop-color:#858085"/>
	<stop  offset="0.8764" style="stop-color:#807B80"/>
	<stop  offset="1" style="stop-color:#D1D3D4"/>
	<stop  offset="1" style="stop-color:#A7A9AC"/>
</linearGradient>
<path fill="url(#SVGID_3_)" d="M167.171,193.938c21.658,15.605,31.224,38.267,31.224,60.421c0,33.737-17.118,48.343-28.704,57.405
	c-8.559,7.556-22.657,13.595-30.717,16.615c-2.013,1.01-1.007,4.532,1.007,9.562c10.072,19.645,42.803,71.003,56.901,90.138
	c15.611,21.146,26.184,33.737,36.757,44.312c16.111,16.112,30.717,20.646,39.782,20.646c4.026,0,6.546,1.514,6.546,3.021
	c0,1.01-2.02,2.521-6.046,4.029c-4.026,1.513-12.085,2.017-19.131,2.017c-30.718,0-50.862-16.619-69.487-39.78
	c-25.685-32.729-67.98-102.22-75.033-110.776c-5.032-5.539-9.565-10.069-15.605-11.579c-5.039-1.513-12.085-2.521-25.177-2.021
	c-2.521,0-4.533,2.021-5.033,4.033c-1.014,5.032-1.514,69.486-1.014,89.631c0.507,23.158,2.521,41.29,4.033,45.816
	c2.014,6.046,5.539,11.079,23.664,14.099c5.54,1.016,7.553,2.02,7.553,4.029c0,2.017-4.026,3.529-10.065,3.529
	c-10.579,0-20.145-2.521-37.263-2.521c-18.632,0-33.237,2.521-42.803,2.521c-5.04,0-8.56-1.013-8.56-3.529
	c0-2.013,3.52-3.017,10.065-4.529c15.612-3.02,21.151-7.553,22.665-28.698c1.507-28.7,2.513-66.473,2.513-139.48
	c0-70.496-2.013-97.184-3.02-113.299c-1.007-14.602-2.013-21.651-23.158-25.171c-4.532-1.01-8.565-2.016-8.565-4.533
	c0-1.513,2.52-3.026,9.065-3.026c7.053,0,19.132,2.017,37.264,2.017c18.631,0,37.263-2.517,53.875-2.517
	C130.921,176.312,150.56,181.852,167.171,193.938z M66.967,187.392c-1.006,0.5-2.513,0.5-3.02,8.559
	c-0.507,10.072-0.507,116.823-0.507,124.875c0,7.556,2.02,9.065,3.526,9.065c3.026,0.503,9.572,0.503,13.599,0.503
	c14.605,0,45.822-4.029,55.889-10.575c14.105-10.069,30.217-30.717,30.217-57.904c0-26.688-8.059-45.826-21.151-57.908
	c-13.592-12.589-31.717-20.142-61.934-20.142C77.04,183.866,69.487,185.879,66.967,187.392z"/>
<path fill="#2A29FF" d="M487.776,215.32c0,6.201-5.027,11.228-11.228,11.228s-11.225-5.026-11.225-11.228
	c0-6.195,5.024-11.221,11.225-11.221S487.776,209.125,487.776,215.32z"/>
<path fill="#2A29FF" d="M490.238,165.636c0,6.201-5.032,11.228-11.23,11.228s-11.225-5.026-11.225-11.228
	c0-6.195,5.023-11.222,11.225-11.222S490.238,159.44,490.238,165.636z"/>
<path fill="#2A29FF" d="M479.293,140.438c0,6.201-5.027,11.221-11.225,11.221c-6.198,0-11.228-5.02-11.228-11.221
	c0-6.201,5.026-11.225,11.228-11.225C474.266,129.215,479.293,134.238,479.293,140.438z"/>
<path fill="#2A29FF" d="M506.331,140.438c0,6.201-5.014,11.221-11.218,11.221c-6.198,0-11.228-5.02-11.228-11.221
	c0-6.201,5.026-11.225,11.228-11.225C501.317,129.215,506.331,134.238,506.331,140.438z"/>
<path fill="#2A29FF" d="M532.757,140.438c0,6.201-5.021,11.221-11.219,11.221s-11.225-5.02-11.225-11.221
	c0-6.201,5.023-11.225,11.225-11.225S532.757,134.238,532.757,140.438z"/>
<path fill="#2A29FF" d="M453.349,139.721c0,6.201-5.02,11.224-11.225,11.224c-6.197,0-11.218-5.023-11.218-11.224
	c0-6.198,5.021-11.222,11.218-11.222C448.329,128.499,453.349,133.522,453.349,139.721z"/>
<path fill="#2A29FF" d="M462.573,165.532c0,6.198-5.027,11.225-11.228,11.225c-6.195,0-11.225-5.027-11.225-11.225
	c0-6.195,5.026-11.222,11.225-11.222C457.546,154.31,462.573,159.337,462.573,165.532z"/>
<path fill="#2A29FF" d="M516.657,165.636c0,6.201-5.021,11.228-11.219,11.228c-6.198,0-11.221-5.026-11.221-11.228
	c0-6.195,5.021-11.222,11.221-11.222C511.637,154.414,516.657,159.44,516.657,165.636z"/>
<circle fill="#2A29FF" cx="463.64" cy="189.911" r="11.222"/>
<path fill="#2A29FF" d="M504.983,190.529c0,6.201-5.021,11.221-11.222,11.221c-6.204,0-11.225-5.02-11.225-11.221
	c0-6.198,5.021-11.225,11.225-11.225C499.963,179.304,504.983,184.331,504.983,190.529z"/>
</svg>
