<?xml version="1.0" encoding="utf-8"?>
<!-- Generator: Adobe Illustrator 15.0.2, SVG Export Plug-In  -->
<!DOCTYPE svg PUBLIC "-//W3C//DTD SVG 1.1//EN" "http://www.w3.org/Graphics/SVG/1.1/DTD/svg11.dtd" [
	<!ENTITY ns_flows "http://ns.adobe.com/Flows/1.0/">
]>
<svg version="1.1"
	 xmlns="http://www.w3.org/2000/svg" xmlns:xlink="http://www.w3.org/1999/xlink" xmlns:a="http://ns.adobe.com/AdobeSVGViewerExtensions/3.0/"
	 x="0px" y="0px" width="1024px" height="768px" viewBox="-93.854 -50.69 1024 768"
	 overflow="visible" enable-background="new -93.854 -50.69 1024 768" xml:space="preserve">
<defs>
</defs>
<path fill="#231F20" d="M146.127,0.15c97.749,0,149.091,60.229,172.788,92.812c22.709,30.608,47.393,86.887,54.305,153.042
	c0,2.962,0.987,5.924,3.949,5.924c38.507,1.975,91.825,17.772,120.458,32.583c3.949,2.962,7.899,2.962,13.822-3.95
	c5.926-5.924,12.836-18.76,0-39.494c-12.835-19.747-42.455-71.09-46.404-82.938c-3.95-11.849-7.899-27.646-3.95-40.482
	c8.886-33.57,51.343-74.052,105.647-74.052c25.672,0,63.191,14.811,78.002,21.722c8.886,2.962,17.772,10.861,20.734,15.798
	c2.962,5.924,1.975,7.899-3.95,12.836c-20.733,15.797-30.607,37.52-31.595,42.456c-0.987,5.925-0.987,6.912,2.962,5.925
	c13.823-4.937,32.583-8.886,54.306-8.886c10.859,0,36.531,14.81,58.254,44.43c3.949,4.938,4.937,8.887,0.986,15.799
	c-8.886,13.822-43.443,51.343-60.229,51.343c-10.861,0-30.607-3.95-37.52-3.95c-1.975,0-3.949,0-0.987,3.95
	c1.974,1.974,16.784,18.759,16.784,21.722c0,1.975-18.759,14.811-30.607,21.722c-10.861,4.937-44.432,2.962-50.355,3.95
	c-6.911,0.986-6.911,1.975-3.949,5.924c4.937,8.886,21.722,23.697,48.381,23.697c24.684,0,54.305-9.875,71.09-13.824
	c16.785-2.962,31.596-7.898,50.355,3.949c19.747,11.85,48.381,29.622,62.203,41.471c10.861,11.848,24.684,39.492,24.684,52.33
	c0,5.922,0,8.886-8.885,11.847c-8.887,3.949-36.533,5.925-55.293,4.937c-4.937-0.987-6.912,0-2.962,2.964
	c2.962,4.937,37.52,41.468,37.52,77.014c0,13.823-3.95,35.544-5.924,56.278c-2.962,18.76-2.962,32.583-3.95,42.456
	c-2.961,47.396-46.405,65.167-54.305,65.167c-7.898,0-36.532-6.912-36.532-30.608c0-6.91,2.962-16.784,6.911-20.733
	c2.963-2.963,4.938-4.937,7.899-2.963c3.949,1.976,17.772,7.897,29.621,7.897c15.798,0,29.62-7.897,29.62-28.633
	c0-21.721-20.734-54.304-89.85-70.102c-2.961-0.988-5.924-1.976-5.924-4.937c0-11.85-1.975-28.634-5.924-32.583
	c-3.949-2.963-6.912-4.937-6.912-1.976c-0.986,3.949-8.886,17.771-18.76,26.66c-15.798,15.796-13.822,47.393-7.898,63.188
	c1.975,4.938-1.975,5.925-10.861,2.964c-10.861-2.964-41.469-27.646-41.469-59.242c0-16.784,0-30.609,0-45.42
	c0-75.038-42.457-105.646-61.217-105.646c-2.963,0-3.949,0-1.975,6.912c1.975,5.925,11.848,34.559,11.848,43.444
	c0.988,8.886,0,19.747-4.937,30.608c-3.948,11.848-4.937,22.709-2.962,35.544c3.95,36.533-5.924,69.115-14.811,77.014
	c-1.975,2.964-8.887,4.937-11.848-3.949c-12.836-37.519-18.76-33.57-29.621-44.432c-3.949-2.961-2.962-1.974-5.924,0.988
	c-6.912,8.886-7.899,42.456-3.949,51.344c1.975,5.923,0.986,7.898-7.899,3.949c-30.608-13.823-73.065-28.634-84.913-83.927
	c-3.949-12.835-5.924-29.621-5.924-39.494c0-68.129,83.926-92.812,116.508-121.446c3.95-2.963,7.899-15.798,1.975-20.734
	c-15.797-11.849-56.279-25.672-110.584-25.672c-1.975,0-2.962,2.963-2.962,4.938c-3.949,95.774-67.14,212.283-178.712,212.283
	c-24.684,0-37.519-6.913-47.393-12.835c-9.874-5.925-10.861-9.874-14.811-19.747c-7.9-18.76-20.735-38.507-30.609-38.507
	c-0.987,0-4.937,4.937-5.924,6.91c-14.811,25.672-27.646,60.229-27.646,91.824c0,35.546,14.811,59.242,37.519,59.242
	c7.899,0,15.799-1.976,18.76-2.962c4.937-0.987,7.9,2.962,13.824,7.898c6.911,5.925,12.836,23.696,12.836,32.582
	c0,27.647-22.71,50.356-50.356,50.356c-43.444,0-75.043-44.432-75.043-127.37c0-140.205,130.336-281.398,321.883-287.322
	c3.949,0,2.964-13.823,2.964-15.798c-6.913-45.419-31.597-78.001-40.483-84.913c-16.784-16.785-24.684-4.937-24.684,2.963
	c0,11.848-2.962,47.393-18.76,61.216c-14.811,11.849-35.546,11.849-43.443,11.849c-16.786,0-34.559-13.823-44.432-33.57
	c-4.938-9.874-4.938-22.709-2.962-41.47c2.962-17.772,5.924-62.203-9.873-85.9c-17.774-27.646-46.407-37.52-66.155-37.52
	c-21.721,0-51.342,18.76-51.342,44.432c0,20.734,11.85,45.418,28.634,62.203c2.962,2.962,4.937,8.887,3.949,12.836
	c-5.924,21.722-20.733,30.608-38.508,30.608C28.631,178.863,0,157.14,0,121.596c0-26.659,12.832-66.153,54.303-92.812
	C102.684-3.799,140.203,0.15,146.127,0.15z M209.318,456.311c88.861,0,149.091-91.824,145.142-174.762c0-3.949,0-5.925-3.948-5.925
	c-107.623,9.874-191.55,58.255-234.993,117.496c-0.988,2.964,0,8.889,0.987,10.861C132.305,437.551,177.722,456.311,209.318,456.311
	z"/>
</svg>
